<mxfile host="app.diagrams.net" modified="2022-09-02T04:25:55.098Z" agent="5.0 (Macintosh; Intel Mac OS X 10_15_7) AppleWebKit/537.36 (KHTML, like Gecko) Chrome/104.0.0.0 Safari/537.36" etag="zgc_-QVd1qhFl7LkwbC9" version="20.2.8" type="github">
  <diagram id="l3nBGYv4VJ6K6399M-b1" name="หน้า-1">
    <mxGraphModel dx="1296" dy="647" grid="1" gridSize="10" guides="1" tooltips="1" connect="1" arrows="1" fold="1" page="1" pageScale="1" pageWidth="827" pageHeight="1169" math="0" shadow="0">
      <root>
        <mxCell id="0" />
        <mxCell id="1" parent="0" />
        <mxCell id="c2iq8xSu1ZN3qhIwDBXM-1" value="" style="group" vertex="1" connectable="0" parent="1">
          <mxGeometry x="42" y="40" width="744" height="480" as="geometry" />
        </mxCell>
        <mxCell id="c2iq8xSu1ZN3qhIwDBXM-2" value="" style="group" vertex="1" connectable="0" parent="c2iq8xSu1ZN3qhIwDBXM-1">
          <mxGeometry x="19.2" y="7.6923076923076925" width="724.8" height="356.92307692307696" as="geometry" />
        </mxCell>
        <mxCell id="c2iq8xSu1ZN3qhIwDBXM-3" value="เริ่มต้น" style="ellipse;whiteSpace=wrap;html=1;rounded=1;glass=0;strokeWidth=1;shadow=0;" vertex="1" parent="c2iq8xSu1ZN3qhIwDBXM-2">
          <mxGeometry x="14.028387096774193" width="84.17032258064516" height="30.76923076923077" as="geometry" />
        </mxCell>
        <mxCell id="c2iq8xSu1ZN3qhIwDBXM-4" value="สิ้นสุด" style="ellipse;whiteSpace=wrap;html=1;rounded=1;glass=0;strokeWidth=1;shadow=0;" vertex="1" parent="c2iq8xSu1ZN3qhIwDBXM-2">
          <mxGeometry x="645.305806451613" y="42.30769230769231" width="79.4941935483871" height="30.76923076923077" as="geometry" />
        </mxCell>
        <mxCell id="c2iq8xSu1ZN3qhIwDBXM-5" value="&lt;span style=&quot;color: rgb(0, 0, 0); font-family: Helvetica; font-size: 12px; font-style: normal; font-variant-ligatures: normal; font-variant-caps: normal; font-weight: 400; letter-spacing: normal; orphans: 2; text-align: center; text-indent: 0px; text-transform: none; widows: 2; word-spacing: 0px; -webkit-text-stroke-width: 0px; background-color: rgb(248, 249, 250); text-decoration-thickness: initial; text-decoration-style: initial; text-decoration-color: initial; float: none; display: inline !important;&quot;&gt;ดึงข้อมูลจาก Table&lt;br&gt;&lt;/span&gt;RequestProxyVote ที่เลขที่เลขอ้างอิงตรงกันกับ requestId" style="rounded=1;whiteSpace=wrap;html=1;" vertex="1" parent="c2iq8xSu1ZN3qhIwDBXM-2">
          <mxGeometry x="-18.89" y="96.15" width="148.89" height="63.85" as="geometry" />
        </mxCell>
        <mxCell id="c2iq8xSu1ZN3qhIwDBXM-6" style="edgeStyle=orthogonalEdgeStyle;rounded=0;orthogonalLoop=1;jettySize=auto;html=1;entryX=0.5;entryY=0;entryDx=0;entryDy=0;" edge="1" parent="c2iq8xSu1ZN3qhIwDBXM-2" source="c2iq8xSu1ZN3qhIwDBXM-3" target="c2iq8xSu1ZN3qhIwDBXM-5">
          <mxGeometry relative="1" as="geometry" />
        </mxCell>
        <mxCell id="c2iq8xSu1ZN3qhIwDBXM-7" value="ส่ง Error status 500" style="whiteSpace=wrap;html=1;rounded=1;" vertex="1" parent="c2iq8xSu1ZN3qhIwDBXM-2">
          <mxGeometry x="275.8916129032258" y="50" width="112.22709677419354" height="46.15384615384615" as="geometry" />
        </mxCell>
        <mxCell id="c2iq8xSu1ZN3qhIwDBXM-8" value="ตรวจสอบข้อมูล" style="whiteSpace=wrap;html=1;rounded=1;" vertex="1" parent="c2iq8xSu1ZN3qhIwDBXM-2">
          <mxGeometry y="303.0769230769231" width="112.22709677419354" height="46.15384615384615" as="geometry" />
        </mxCell>
        <mxCell id="c2iq8xSu1ZN3qhIwDBXM-9" style="edgeStyle=orthogonalEdgeStyle;rounded=0;orthogonalLoop=1;jettySize=auto;html=1;entryX=0;entryY=0.5;entryDx=0;entryDy=0;endArrow=block;endFill=0;" edge="1" parent="c2iq8xSu1ZN3qhIwDBXM-2" source="c2iq8xSu1ZN3qhIwDBXM-11" target="c2iq8xSu1ZN3qhIwDBXM-7">
          <mxGeometry relative="1" as="geometry" />
        </mxCell>
        <mxCell id="c2iq8xSu1ZN3qhIwDBXM-10" value="" style="edgeStyle=orthogonalEdgeStyle;rounded=0;orthogonalLoop=1;jettySize=auto;html=1;endArrow=block;endFill=0;" edge="1" parent="c2iq8xSu1ZN3qhIwDBXM-2" source="c2iq8xSu1ZN3qhIwDBXM-11" target="c2iq8xSu1ZN3qhIwDBXM-8">
          <mxGeometry relative="1" as="geometry" />
        </mxCell>
        <mxCell id="c2iq8xSu1ZN3qhIwDBXM-11" value="ดึงข้อมูล" style="rhombus;whiteSpace=wrap;html=1;rounded=1;" vertex="1" parent="c2iq8xSu1ZN3qhIwDBXM-2">
          <mxGeometry x="18.704516129032257" y="192.30769230769232" width="74.81806451612903" height="61.53846153846154" as="geometry" />
        </mxCell>
        <mxCell id="c2iq8xSu1ZN3qhIwDBXM-12" value="" style="edgeStyle=orthogonalEdgeStyle;rounded=0;orthogonalLoop=1;jettySize=auto;html=1;endArrow=block;endFill=0;" edge="1" parent="c2iq8xSu1ZN3qhIwDBXM-2" source="c2iq8xSu1ZN3qhIwDBXM-5" target="c2iq8xSu1ZN3qhIwDBXM-11">
          <mxGeometry relative="1" as="geometry" />
        </mxCell>
        <mxCell id="c2iq8xSu1ZN3qhIwDBXM-13" value="ไม่สำเร็จ" style="text;html=1;align=center;verticalAlign=middle;resizable=0;points=[];autosize=1;strokeColor=none;fillColor=none;" vertex="1" parent="c2iq8xSu1ZN3qhIwDBXM-2">
          <mxGeometry x="93.52258064516128" y="188.46153846153848" width="70" height="30" as="geometry" />
        </mxCell>
        <mxCell id="c2iq8xSu1ZN3qhIwDBXM-14" value="สำเร็จ" style="text;html=1;align=center;verticalAlign=middle;resizable=0;points=[];autosize=1;strokeColor=none;fillColor=none;" vertex="1" parent="c2iq8xSu1ZN3qhIwDBXM-2">
          <mxGeometry x="65.4658064516129" y="269.2307692307692" width="50" height="30" as="geometry" />
        </mxCell>
        <mxCell id="c2iq8xSu1ZN3qhIwDBXM-15" value="มีข้อมูล" style="rhombus;whiteSpace=wrap;html=1;rounded=1;" vertex="1" parent="c2iq8xSu1ZN3qhIwDBXM-2">
          <mxGeometry x="266.5393548387097" y="295.3846153846154" width="74.81806451612903" height="61.53846153846154" as="geometry" />
        </mxCell>
        <mxCell id="c2iq8xSu1ZN3qhIwDBXM-16" value="" style="edgeStyle=orthogonalEdgeStyle;rounded=0;orthogonalLoop=1;jettySize=auto;html=1;endArrow=block;endFill=0;" edge="1" parent="c2iq8xSu1ZN3qhIwDBXM-2" source="c2iq8xSu1ZN3qhIwDBXM-8" target="c2iq8xSu1ZN3qhIwDBXM-15">
          <mxGeometry relative="1" as="geometry" />
        </mxCell>
        <mxCell id="c2iq8xSu1ZN3qhIwDBXM-17" value="ส่ง Error status 404" style="whiteSpace=wrap;html=1;rounded=1;" vertex="1" parent="c2iq8xSu1ZN3qhIwDBXM-2">
          <mxGeometry x="275.8916129032258" y="123.07692307692308" width="112.22709677419354" height="46.15384615384615" as="geometry" />
        </mxCell>
        <mxCell id="c2iq8xSu1ZN3qhIwDBXM-18" value="" style="edgeStyle=orthogonalEdgeStyle;rounded=0;orthogonalLoop=1;jettySize=auto;html=1;endArrow=block;endFill=0;" edge="1" parent="c2iq8xSu1ZN3qhIwDBXM-2" source="c2iq8xSu1ZN3qhIwDBXM-15" target="c2iq8xSu1ZN3qhIwDBXM-17">
          <mxGeometry relative="1" as="geometry">
            <Array as="points">
              <mxPoint x="303.9483870967742" y="276.92307692307696" />
              <mxPoint x="229.13032258064516" y="276.92307692307696" />
              <mxPoint x="229.13032258064516" y="146.15384615384616" />
            </Array>
          </mxGeometry>
        </mxCell>
        <mxCell id="c2iq8xSu1ZN3qhIwDBXM-19" value="ไม่พบข้อมูล" style="text;html=1;align=center;verticalAlign=middle;resizable=0;points=[];autosize=1;strokeColor=none;fillColor=none;" vertex="1" parent="c2iq8xSu1ZN3qhIwDBXM-2">
          <mxGeometry x="238.4825806451613" y="246.15384615384616" width="80" height="30" as="geometry" />
        </mxCell>
        <mxCell id="c2iq8xSu1ZN3qhIwDBXM-20" value="พบข้อมูล" style="text;html=1;align=center;verticalAlign=middle;resizable=0;points=[];autosize=1;strokeColor=none;fillColor=none;" vertex="1" parent="c2iq8xSu1ZN3qhIwDBXM-2">
          <mxGeometry x="331.06993548387095" y="326.1538461538462" width="70" height="30" as="geometry" />
        </mxCell>
        <mxCell id="c2iq8xSu1ZN3qhIwDBXM-21" value="ส่งข้อมูลวาระที่มีการโหวตทั้งหมด" style="whiteSpace=wrap;html=1;rounded=1;" vertex="1" parent="c2iq8xSu1ZN3qhIwDBXM-2">
          <mxGeometry x="406.8232258064516" y="223.0769230769231" width="112.22709677419354" height="46.15384615384615" as="geometry" />
        </mxCell>
        <mxCell id="c2iq8xSu1ZN3qhIwDBXM-22" value="" style="edgeStyle=orthogonalEdgeStyle;rounded=0;orthogonalLoop=1;jettySize=auto;html=1;endArrow=block;endFill=0;entryX=0.5;entryY=0;entryDx=0;entryDy=0;" edge="1" parent="c2iq8xSu1ZN3qhIwDBXM-2" source="c2iq8xSu1ZN3qhIwDBXM-15" target="c2iq8xSu1ZN3qhIwDBXM-21">
          <mxGeometry relative="1" as="geometry">
            <mxPoint x="56.11354838709677" y="484.61538461538464" as="targetPoint" />
          </mxGeometry>
        </mxCell>
        <mxCell id="c2iq8xSu1ZN3qhIwDBXM-23" value="" style="edgeStyle=orthogonalEdgeStyle;rounded=0;orthogonalLoop=1;jettySize=auto;html=1;endArrow=block;endFill=0;" edge="1" parent="c2iq8xSu1ZN3qhIwDBXM-2" source="c2iq8xSu1ZN3qhIwDBXM-24" target="c2iq8xSu1ZN3qhIwDBXM-4">
          <mxGeometry relative="1" as="geometry" />
        </mxCell>
        <mxCell id="c2iq8xSu1ZN3qhIwDBXM-24" value="" style="ellipse;whiteSpace=wrap;html=1;aspect=fixed;" vertex="1" parent="c2iq8xSu1ZN3qhIwDBXM-2">
          <mxGeometry x="547.1070967741935" y="46.15384615384615" width="21.58213399503722" height="21.58213399503722" as="geometry" />
        </mxCell>
        <mxCell id="c2iq8xSu1ZN3qhIwDBXM-25" style="edgeStyle=orthogonalEdgeStyle;rounded=0;orthogonalLoop=1;jettySize=auto;html=1;entryX=0;entryY=0.5;entryDx=0;entryDy=0;endArrow=block;endFill=0;" edge="1" parent="c2iq8xSu1ZN3qhIwDBXM-2" source="c2iq8xSu1ZN3qhIwDBXM-7" target="c2iq8xSu1ZN3qhIwDBXM-24">
          <mxGeometry relative="1" as="geometry" />
        </mxCell>
        <mxCell id="c2iq8xSu1ZN3qhIwDBXM-26" style="edgeStyle=orthogonalEdgeStyle;rounded=0;orthogonalLoop=1;jettySize=auto;html=1;entryX=0;entryY=1;entryDx=0;entryDy=0;endArrow=block;endFill=0;" edge="1" parent="c2iq8xSu1ZN3qhIwDBXM-2" source="c2iq8xSu1ZN3qhIwDBXM-17" target="c2iq8xSu1ZN3qhIwDBXM-24">
          <mxGeometry relative="1" as="geometry" />
        </mxCell>
        <mxCell id="c2iq8xSu1ZN3qhIwDBXM-27" style="edgeStyle=orthogonalEdgeStyle;rounded=0;orthogonalLoop=1;jettySize=auto;html=1;entryX=1;entryY=1;entryDx=0;entryDy=0;endArrow=block;endFill=0;" edge="1" parent="c2iq8xSu1ZN3qhIwDBXM-2" source="c2iq8xSu1ZN3qhIwDBXM-21" target="c2iq8xSu1ZN3qhIwDBXM-24">
          <mxGeometry relative="1" as="geometry" />
        </mxCell>
      </root>
    </mxGraphModel>
  </diagram>
</mxfile>
